<svg data-v-0dd9719b="" version="1.0" xmlns="http://www.w3.org/2000/svg" xmlns:xlink="http://www.w3.org/1999/xlink" width="100%" height="100%" viewBox="0 0 340.000000 250.000000" preserveAspectRatio="xMidYMid meet" color-interpolation-filters="sRGB" style="margin: auto;"> <rect data-v-0dd9719b="" x="0" y="0" width="100%" height="100%" fill="#fff" fill-opacity="1" class="background"></rect> <rect data-v-0dd9719b="" x="0" y="0" width="100%" height="100%" fill="url(#watermark)" fill-opacity="1" class="watermarklayer"></rect> <g data-v-0dd9719b="" fill="#333" class="icon-text-wrapper icon-svg-group iconsvg" transform="translate(80.72500610351562,83.79099273714316)"><g class="iconsvg-imagesvg" transform="translate(59.274993896484375,0)"><g><rect fill="#333" fill-opacity="0" stroke-width="2" x="0" y="0" width="60" height="60.018005401620485" class="image-rect"></rect> <svg x="0" y="0" width="60" height="60.018005401620485" filtersec="colorsb1406980513" class="image-svg-svg primary" style="overflow: visible;"><svg xmlns="http://www.w3.org/2000/svg" viewBox="0.01032400131225586 0.0124664306640625 171.0183563232422 171.0697784423828"><path d="M123.14 39.2a162.17 162.17 0 0 0-11.74 29.26 206.56 206.56 0 0 0-7.7 48.42 301.22 301.22 0 0 0 1.91 47.58c.49 4.38.55 4.32-3.64 5.11a90.77 90.77 0 0 1-33 0c-1.74-.31-1.94-1.22-1.84-2.59.48-6.22.82-12.46 1.46-18.67A251.3 251.3 0 0 1 76.83 105 210.88 210.88 0 0 1 127 17c4-4.23 4-4.26 8.77-.7 20.61 15.4 32.58 35.93 34.87 61.48 2.24 24.92-5.21 47-22.14 65.68a96.83 96.83 0 0 1-11.79 10.75c-1.38 1.1-2 1-2.6-.69a252.34 252.34 0 0 1-9.93-34.52 204.69 204.69 0 0 1-4-53.13 170.31 170.31 0 0 1 2.92-24 4.42 4.42 0 0 0 .04-2.67z" fill="#27aae1"></path><path d="M4.92 113.65C-5 87.25-1.17 48.41 28.31 21.82 57-4.07 96.86-5 123.42 9.06 75.64 34.56 35.34 68.22 4.92 113.65zM83.37 54.19a200.08 200.08 0 0 0-12.73 18.52c-11.83 19.09-20.38 39.62-26.55 61.17a216.53 216.53 0 0 0-5 21.12c-.28 1.53-.68 1.8-2 .84A89.61 89.61 0 0 1 19.81 140a2.47 2.47 0 0 1-.53-3.11c8.89-16.89 18.38-33.37 29.88-48.64a176.78 176.78 0 0 1 20.91-23.76 73.11 73.11 0 0 1 13.3-10.3z" fill="#bf202f"></path></svg></svg> <!----></g></g> <g transform="translate(0,67.01800918579102)"><g data-gra="path-name" fill-rule="" class="tp-name iconsvg-namesvg"><g transform="scale(1)"><g><path d="M9.91 0L9.91 0 9.91-0.43Q10.6-0.48 10.95-0.61 11.29-0.74 11.41-1.12 11.53-1.51 11.53-2.29L11.53-2.29 11.53-13.02Q11.53-13.82 11.41-14.2 11.29-14.58 10.93-14.72 10.58-14.86 9.91-14.88L9.91-14.88 9.91-15.32Q10.49-15.29 11.43-15.27 12.37-15.25 13.3-15.25L13.3-15.25Q14.3-15.25 15.17-15.27 16.05-15.29 16.59-15.32L16.59-15.32 16.59-14.88Q15.9-14.86 15.54-14.72 15.19-14.58 15.08-14.2 14.97-13.82 14.97-13.02L14.97-13.02 14.97-2.29Q14.97-1.51 15.09-1.12 15.21-0.74 15.55-0.61 15.9-0.48 16.59-0.43L16.59-0.43 16.59 0Q16.05-0.04 15.17-0.05 14.3-0.06 13.3-0.06L13.3-0.06Q12.37-0.06 11.43-0.05 10.49-0.04 9.91 0ZM0.74 0L0.74 0 0.74-0.43Q1.43-0.48 1.77-0.61 2.12-0.74 2.24-1.12 2.36-1.51 2.36-2.29L2.36-2.29 2.36-13.02Q2.36-13.82 2.24-14.2 2.12-14.58 1.76-14.72 1.41-14.86 0.74-14.88L0.74-14.88 0.74-15.32Q1.3-15.29 2.2-15.27 3.09-15.25 4.15-15.25L4.15-15.25Q5.06-15.25 5.95-15.27 6.84-15.29 7.42-15.32L7.42-15.32 7.42-14.88Q6.73-14.86 6.37-14.72 6.01-14.58 5.91-14.2 5.8-13.82 5.8-13.02L5.8-13.02 5.8-2.29Q5.8-1.51 5.92-1.12 6.04-0.74 6.38-0.61 6.73-0.48 7.42-0.43L7.42-0.43 7.42 0Q6.84-0.04 5.95-0.05 5.06-0.06 4.15-0.06L4.15-0.06Q3.09-0.06 2.2-0.05 1.3-0.04 0.74 0ZM12.94-7.48L4.39-7.48 4.39-7.92 12.94-7.92 12.94-7.48ZM32.21-15.32L32.21-15.32 32.21-14.9Q31.52-14.75 30.73-14.3 29.94-13.84 29.07-12.83L29.07-12.83 25.01-7.98 26.26-9.78 31.41-1.75Q31.71-1.25 32.06-0.95 32.4-0.65 32.97-0.43L32.97-0.43 32.97 0Q32.21-0.04 31.28-0.05 30.35-0.06 29.59-0.06L29.59-0.06Q29.14-0.06 28.49-0.05 27.84-0.04 26.85 0L26.85 0 26.85-0.43Q27.73-0.48 27.92-0.68 28.1-0.89 27.75-1.41L27.75-1.41 24.62-6.49Q24.31-6.99 24.08-7.24 23.84-7.48 23.6-7.58 23.36-7.68 22.97-7.7L22.97-7.7 22.97-8.16Q23.93-8.18 24.67-8.67 25.42-9.17 26.3-10.19L26.3-10.19 27.58-11.72Q28.4-12.7 28.54-13.4 28.68-14.1 28.26-14.49 27.84-14.88 26.98-14.9L26.98-14.9 26.98-15.32Q27.78-15.29 28.5-15.27 29.22-15.25 30.18-15.25L30.18-15.25Q31.43-15.25 32.21-15.32ZM24.73-15.32L24.73-15.32 24.73-14.88Q24.03-14.86 23.68-14.72 23.32-14.58 23.21-14.2 23.1-13.82 23.1-13.02L23.1-13.02 23.1-2.29Q23.1-1.51 23.22-1.12 23.34-0.74 23.69-0.61 24.03-0.48 24.73-0.43L24.73-0.43 24.73 0Q24.14-0.04 23.25-0.05 22.37-0.06 21.46-0.06L21.46-0.06Q20.42-0.06 19.5-0.05 18.58-0.04 18.04 0L18.04 0 18.04-0.43Q18.73-0.48 19.08-0.61 19.43-0.74 19.54-1.12 19.66-1.51 19.66-2.29L19.66-2.29 19.66-13.02Q19.66-13.82 19.54-14.2 19.43-14.58 19.07-14.72 18.71-14.86 18.04-14.88L18.04-14.88 18.04-15.32Q18.58-15.29 19.5-15.27 20.42-15.25 21.46-15.25L21.46-15.25Q22.37-15.25 23.25-15.27 24.14-15.29 24.73-15.32ZM56.91-15.32L56.91-15.32 56.91-14.88Q56.22-14.86 55.88-14.72 55.53-14.58 55.41-14.2 55.29-13.82 55.29-13.02L55.29-13.02 55.29-2.29Q55.29-1.51 55.41-1.12 55.53-0.74 55.88-0.61 56.22-0.48 56.91-0.43L56.91-0.43 56.91 0Q56.31-0.04 55.39-0.05 54.47-0.06 53.52-0.06L53.52-0.06Q52.48-0.06 51.57-0.05 50.66-0.04 50.1 0L50.1 0 50.1-0.43Q50.84-0.48 51.21-0.61 51.59-0.74 51.72-1.12 51.85-1.51 51.85-2.29L51.85-2.29 51.85-14 52-14 46.64 0.02 46.29 0.02 40.45-13.91 40.45-3.55Q40.45-2.36 40.58-1.72 40.71-1.08 41.15-0.81 41.6-0.54 42.55-0.43L42.55-0.43 42.55 0Q42.14-0.04 41.47-0.05 40.8-0.06 40.21-0.06L40.21-0.06Q39.72-0.06 39.2-0.05 38.68-0.04 38.33 0L38.33 0 38.33-0.43Q39.02-0.54 39.37-0.8 39.72-1.06 39.84-1.65 39.95-2.25 39.95-3.29L39.95-3.29 39.95-13.02Q39.95-13.82 39.84-14.2 39.72-14.58 39.36-14.72 39-14.86 38.33-14.88L38.33-14.88 38.33-15.32Q38.68-15.29 39.2-15.27 39.72-15.25 40.21-15.25L40.21-15.25Q41.14-15.25 42.04-15.27 42.94-15.29 43.63-15.32L43.63-15.32 48.17-4.35 47.63-3.85 51.98-15.25Q52.35-15.25 52.74-15.25 53.13-15.25 53.52-15.25L53.52-15.25Q54.47-15.25 55.39-15.27 56.31-15.29 56.91-15.32ZM65.05-15.32L65.05-15.32 65.05-14.88Q64.36-14.86 64-14.72 63.64-14.58 63.53-14.2 63.43-13.82 63.43-13.02L63.43-13.02 63.43-2.29Q63.43-1.51 63.54-1.12 63.66-0.74 64.01-0.61 64.36-0.48 65.05-0.43L65.05-0.43 65.05 0Q64.46-0.04 63.58-0.05 62.69-0.06 61.78-0.06L61.78-0.06Q60.72-0.06 59.82-0.05 58.93-0.04 58.36 0L58.36 0 58.36-0.43Q59.06-0.48 59.4-0.61 59.75-0.74 59.87-1.12 59.99-1.51 59.99-2.29L59.99-2.29 59.99-13.02Q59.99-13.82 59.87-14.2 59.75-14.58 59.39-14.72 59.03-14.86 58.36-14.88L58.36-14.88 58.36-15.32Q58.93-15.29 59.82-15.27 60.72-15.25 61.78-15.25L61.78-15.25Q62.69-15.25 63.58-15.27 64.46-15.29 65.05-15.32ZM73.72-15.36L73.72-15.36 78.98-1.82Q79.28-1.04 79.66-0.75 80.04-0.45 80.34-0.43L80.34-0.43 80.34 0Q79.69-0.04 78.82-0.05 77.94-0.06 77.05-0.06L77.05-0.06Q76.06-0.06 75.17-0.05 74.28-0.04 73.77 0L73.77 0 73.77-0.43Q74.87-0.48 75.16-0.81 75.45-1.15 75.02-2.25L75.02-2.25 71.34-12.31 71.73-12.87 68.44-4.3Q67.84-2.7 67.85-1.88 67.86-1.06 68.38-0.77 68.9-0.48 69.76-0.43L69.76-0.43 69.76 0Q69.05-0.04 68.4-0.05 67.75-0.06 67.08-0.06L67.08-0.06Q66.6-0.06 66.18-0.05 65.76-0.04 65.44 0L65.44 0 65.44-0.43Q65.89-0.52 66.37-1.02 66.84-1.51 67.3-2.7L67.3-2.7 72.23-15.36Q72.58-15.34 72.98-15.34 73.38-15.34 73.72-15.36ZM69.01-6.23L75.24-6.23 75.24-5.8 68.79-5.8 69.01-6.23ZM94.75-15.32L94.75-15.32 94.75-14.88Q94.06-14.8 93.71-14.53 93.36-14.26 93.24-13.67 93.13-13.09 93.13-12.03L93.13-12.03 93.13 0.04Q92.87 0.02 92.6 0.02 92.33 0.02 92.02 0.04L92.02 0.04 82.63-11.85 82.63-3.55Q82.63-2.36 82.76-1.72 82.89-1.08 83.34-0.81 83.78-0.54 84.73-0.43L84.73-0.43 84.73 0Q84.32-0.04 83.65-0.05 82.98-0.06 82.4-0.06L82.4-0.06Q81.9-0.06 81.38-0.05 80.86-0.04 80.51 0L80.51 0 80.51-0.43Q81.21-0.54 81.55-0.8 81.9-1.06 82.02-1.65 82.14-2.25 82.14-3.29L82.14-3.29 82.14-13.02Q82.14-13.82 82.02-14.2 81.9-14.58 81.54-14.72 81.18-14.86 80.51-14.88L80.51-14.88 80.51-15.32Q80.86-15.29 81.38-15.27 81.9-15.25 82.4-15.25L82.4-15.25Q82.92-15.25 83.39-15.27 83.87-15.29 84.26-15.32L84.26-15.32 92.63-5 92.63-11.77Q92.63-12.96 92.5-13.6 92.37-14.23 91.93-14.52 91.48-14.8 90.53-14.88L90.53-14.88 90.53-15.32Q90.94-15.29 91.61-15.27 92.28-15.25 92.87-15.25L92.87-15.25Q93.39-15.25 93.89-15.27 94.4-15.29 94.75-15.32ZM108.72-15.34L108.72-15.34 108.72-14.9Q108.25-14.71 107.75-14.14 107.25-13.56 106.65-12.4L106.65-12.4 102.56-4.3 101.54-4.3 96.48-13.67Q96.09-14.41 95.78-14.64 95.46-14.88 95.22-14.88L95.22-14.88 95.22-15.34Q95.81-15.27 96.42-15.25 97.04-15.23 97.78-15.23L97.78-15.23Q98.73-15.23 99.83-15.26 100.93-15.29 101.84-15.34L101.84-15.34 101.84-14.88Q101.3-14.88 100.87-14.8 100.44-14.71 100.26-14.48 100.09-14.26 100.35-13.76L100.35-13.76 103.77-7.18 103.1-6.32 105.33-10.79Q106.13-12.35 106.18-13.24 106.23-14.13 105.75-14.5 105.26-14.88 104.37-14.9L104.37-14.9 104.37-15.34Q105.11-15.32 105.76-15.29 106.41-15.27 107.08-15.27L107.08-15.27Q107.55-15.27 107.98-15.29 108.4-15.32 108.72-15.34ZM102.54-5.39L104.09-7.72 104.09-2.29Q104.09-1.51 104.21-1.12 104.33-0.74 104.68-0.61 105.02-0.48 105.72-0.43L105.72-0.43 105.72 0Q105.13-0.04 104.21-0.05 103.29-0.06 102.38-0.06L102.38-0.06Q101.37-0.06 100.46-0.05 99.55-0.04 99.03 0L99.03 0 99.03-0.43Q99.72-0.48 100.07-0.61 100.42-0.74 100.53-1.12 100.65-1.51 100.65-2.29L100.65-2.29 100.65-6.73 102.54-5.39ZM116.27-15.32L116.27-15.32 116.27-14.88Q115.58-14.86 115.22-14.72 114.87-14.58 114.76-14.2 114.65-13.82 114.65-13.02L114.65-13.02 114.65-2.29Q114.65-1.51 114.77-1.12 114.89-0.74 115.23-0.61 115.58-0.48 116.27-0.43L116.27-0.43 116.27 0Q115.69-0.04 114.8-0.05 113.91-0.06 113.01-0.06L113.01-0.06Q111.95-0.06 111.05-0.05 110.15-0.04 109.59 0L109.59 0 109.59-0.43Q110.28-0.48 110.63-0.61 110.97-0.74 111.09-1.12 111.21-1.51 111.21-2.29L111.21-2.29 111.21-13.02Q111.21-13.82 111.09-14.2 110.97-14.58 110.62-14.72 110.26-14.86 109.59-14.88L109.59-14.88 109.59-15.32Q110.15-15.29 111.05-15.27 111.95-15.25 113.01-15.25L113.01-15.25Q113.91-15.25 114.8-15.27 115.69-15.29 116.27-15.32ZM124.41-15.32L124.41-15.32Q128.67-15.32 130.74-13.38 132.82-11.44 132.82-7.83L132.82-7.83Q132.82-5.47 131.8-3.71 130.79-1.95 128.85-0.97 126.92 0 124.21 0L124.21 0Q123.69 0 122.73-0.03 121.77-0.06 121.05-0.06L121.05-0.06Q120.1-0.06 119.18-0.05 118.26-0.04 117.72 0L117.72 0 117.72-0.43Q118.41-0.48 118.76-0.61 119.11-0.74 119.22-1.12 119.34-1.51 119.34-2.29L119.34-2.29 119.34-13.02Q119.34-13.82 119.22-14.2 119.11-14.58 118.75-14.72 118.39-14.86 117.72-14.88L117.72-14.88 117.72-15.32Q118.26-15.29 119.18-15.26 120.1-15.23 121.01-15.25L121.01-15.25Q121.79-15.27 122.77-15.29 123.76-15.32 124.41-15.32ZM124.38-14.93L124.38-14.93Q123.39-14.93 123.09-14.56 122.78-14.19 122.78-13.07L122.78-13.07 122.78-2.25Q122.78-1.12 123.1-0.76 123.41-0.39 124.41-0.39L124.41-0.39Q126.22-0.39 127.27-1.24 128.32-2.1 128.78-3.74 129.23-5.39 129.23-7.74L129.23-7.74Q129.23-11.38 128.1-13.15 126.98-14.93 124.38-14.93ZM141-15.32L141-15.32 141-14.88Q140.31-14.86 139.95-14.72 139.59-14.58 139.48-14.2 139.38-13.82 139.38-13.02L139.38-13.02 139.38-2.29Q139.38-1.51 139.49-1.12 139.61-0.74 139.96-0.61 140.31-0.48 141-0.43L141-0.43 141 0Q140.41-0.04 139.53-0.05 138.64-0.06 137.73-0.06L137.73-0.06Q136.67-0.06 135.77-0.05 134.88-0.04 134.31 0L134.31 0 134.31-0.43Q135.01-0.48 135.35-0.61 135.7-0.74 135.82-1.12 135.94-1.51 135.94-2.29L135.94-2.29 135.94-13.02Q135.94-13.82 135.82-14.2 135.7-14.58 135.34-14.72 134.98-14.86 134.31-14.88L134.31-14.88 134.31-15.32Q134.88-15.29 135.77-15.27 136.67-15.25 137.73-15.25L137.73-15.25Q138.64-15.25 139.53-15.27 140.41-15.29 141-15.32ZM149.13-15.32L149.13-15.32Q153.39-15.32 155.47-13.38 157.55-11.44 157.55-7.83L157.55-7.83Q157.55-5.47 156.53-3.71 155.51-1.95 153.58-0.97 151.64 0 148.94 0L148.94 0Q148.42 0 147.45-0.03 146.49-0.06 145.78-0.06L145.78-0.06Q144.83-0.06 143.91-0.05 142.99-0.04 142.45 0L142.45 0 142.45-0.43Q143.14-0.48 143.49-0.61 143.83-0.74 143.95-1.12 144.07-1.51 144.07-2.29L144.07-2.29 144.07-13.02Q144.07-13.82 143.95-14.2 143.83-14.58 143.47-14.72 143.12-14.86 142.45-14.88L142.45-14.88 142.45-15.32Q142.99-15.29 143.91-15.26 144.83-15.23 145.73-15.25L145.73-15.25Q146.51-15.27 147.5-15.29 148.48-15.32 149.13-15.32ZM149.11-14.93L149.11-14.93Q148.11-14.93 147.81-14.56 147.51-14.19 147.51-13.07L147.51-13.07 147.51-2.25Q147.51-1.12 147.82-0.76 148.14-0.39 149.13-0.39L149.13-0.39Q150.95-0.39 152-1.24 153.05-2.1 153.5-3.74 153.96-5.39 153.96-7.74L153.96-7.74Q153.96-11.38 152.83-13.15 151.71-14.93 149.11-14.93ZM165.83-15.36L165.83-15.36 171.09-1.82Q171.39-1.04 171.77-0.75 172.15-0.45 172.45-0.43L172.45-0.43 172.45 0Q171.8-0.04 170.93-0.05 170.05-0.06 169.16-0.06L169.16-0.06Q168.17-0.06 167.28-0.05 166.39-0.04 165.87 0L165.87 0 165.87-0.43Q166.98-0.48 167.27-0.81 167.56-1.15 167.13-2.25L167.13-2.25 163.45-12.31 163.84-12.87 160.55-4.3Q159.95-2.7 159.96-1.88 159.97-1.06 160.49-0.77 161.01-0.48 161.87-0.43L161.87-0.43 161.87 0Q161.16-0.04 160.51-0.05 159.86-0.06 159.19-0.06L159.19-0.06Q158.71-0.06 158.29-0.05 157.87-0.04 157.55 0L157.55 0 157.55-0.43Q158-0.52 158.48-1.02 158.95-1.51 159.41-2.7L159.41-2.7 164.34-15.36Q164.68-15.34 165.08-15.34 165.48-15.34 165.83-15.36ZM161.12-6.23L167.35-6.23 167.35-5.8 160.9-5.8 161.12-6.23ZM179.29-15.32L179.29-15.32 179.29-14.88Q178.59-14.86 178.24-14.72 177.88-14.58 177.77-14.2 177.66-13.82 177.66-13.02L177.66-13.02 177.66-2.29Q177.66-1.51 177.78-1.12 177.9-0.74 178.25-0.61 178.59-0.48 179.29-0.43L179.29-0.43 179.29 0Q178.7-0.04 177.82-0.05 176.93-0.06 176.02-0.06L176.02-0.06Q174.96-0.06 174.06-0.05 173.16-0.04 172.6 0L172.6 0 172.6-0.43Q173.29-0.48 173.64-0.61 173.99-0.74 174.11-1.12 174.22-1.51 174.22-2.29L174.22-2.29 174.22-13.02Q174.22-13.82 174.11-14.2 173.99-14.58 173.63-14.72 173.27-14.86 172.6-14.88L172.6-14.88 172.6-15.32Q173.16-15.29 174.06-15.27 174.96-15.25 176.02-15.25L176.02-15.25Q176.93-15.25 177.82-15.27 178.7-15.29 179.29-15.32Z" transform="translate(-0.7400000095367432, 15.359999656677246)"></path></g> <!----> <!----> <!----> <!----> <!----> <!----> <!----></g></g> <!----></g></g><defs v-gra="od"></defs></svg>